name C:\Users\u0101727\Documents\MyRepositories\upper-imu-dc\Results\main_tracking\Case_31\FLX01_angularVelocities_bodyFrame.mot
datacolumns 4
datarows 117
range 0.51000000 1.67000000
endheader 
time	radius_imu_x	radius_imu_y	radius_imu_z	
          0.51000000	         -0.13140454	          1.78717024	          0.23636058	
          0.52000000	         -0.20558472	          1.81170493	          0.17309306	
          0.53000000	         -0.25573445	          1.82420635	          0.13808258	
          0.54000000	         -0.28956185	          1.78584688	          0.12649927	
          0.55000000	         -0.31339090	          1.68053462	          0.13324530	
          0.56000000	         -0.33177317	          1.51155419	          0.15325558	
          0.57000000	         -0.34754031	          1.29436121	          0.18174394	
          0.58000000	         -0.36209156	          1.04597095	          0.21468904	
          0.59000000	         -0.37584388	          0.77790004	          0.24913401	
          0.60000000	         -0.38869015	          0.49368825	          0.28324460	
          0.61000000	         -0.40040239	          0.19068390	          0.31615270	
          0.62000000	         -0.41102316	         -0.13440532	          0.34761496	
          0.63000000	         -0.42121030	         -0.47817660	          0.37754501	
          0.64000000	         -0.43236149	         -0.82521353	          0.40553743	
          0.65000000	         -0.44638343	         -1.14819134	          0.43053219	
          0.66000000	         -0.46516010	         -1.41413265	          0.45073522	
          0.67000000	         -0.48995782	         -1.59425436	          0.46382780	
          0.68000000	         -0.52105017	         -1.67292307	          0.46739815	
          0.69000000	         -0.55771390	         -1.65185889	          0.45944561	
          0.70000000	         -0.59853688	         -1.54837161	          0.43877249	
          0.71000000	         -0.64184826	         -1.38928089	          0.40512622	
          0.72000000	         -0.68609094	         -1.20359130	          0.35907455	
          0.73000000	         -0.73004950	         -1.01659009	          0.30171496	
          0.74000000	         -0.77292935	         -0.84667796	          0.23436152	
          0.75000000	         -0.81432332	         -0.70490522	          0.15831050	
          0.76000000	         -0.85411469	         -0.59632770	          0.07471498	
          0.77000000	         -0.89235455	         -0.52208183	         -0.01546274	
          0.78000000	         -0.92912854	         -0.48139834	         -0.11147600	
          0.79000000	         -0.96442024	         -0.47321139	         -0.21283211	
          0.80000000	         -0.99799317	         -0.49720215	         -0.31934463	
          0.81000000	         -1.02933730	         -0.55410898	         -0.43116225	
          0.82000000	         -1.05773502	         -0.64521046	         -0.54871172	
          0.83000000	         -1.08246915	         -0.77106286	         -0.67252531	
          0.84000000	         -1.10311752	         -0.92985027	         -0.80300268	
          0.85000000	         -1.11979474	         -1.11615561	         -0.94019120	
          0.86000000	         -1.13317852	         -1.32127480	         -1.08362782	
          0.87000000	         -1.14426086	         -1.53554209	         -1.23224639	
          0.88000000	         -1.15391765	         -1.75203811	         -1.38434517	
          0.89000000	         -1.16251756	         -1.97006718	         -1.53762515	
          0.90000000	         -1.16979136	         -2.19675378	         -1.68930289	
          0.91000000	         -1.17504300	         -2.44591816	         -1.83628940	
          0.92000000	         -1.17763745	         -2.73465317	         -1.97537926	
          0.93000000	         -1.17758408	         -3.07851634	         -2.10346644	
          0.94000000	         -1.17601973	         -3.48630673	         -2.21781556	
          0.95000000	         -1.17545455	         -3.95529990	         -2.31637642	
          0.96000000	         -1.17969551	         -4.46756525	         -2.39809350	
          0.97000000	         -1.19341046	         -4.98836472	         -2.46314087	
          0.98000000	         -1.22132179	         -5.46780388	         -2.51308887	
          0.99000000	         -1.26710265	         -5.84703020	         -2.55094040	
          1.00000000	         -1.33239989	         -6.06936279	         -2.58097626	
          1.01000000	         -1.41582871	         -6.09347014	         -2.60840485	
          1.02000000	         -1.51298487	         -5.90491040	         -2.63874942	
          1.03000000	         -1.61777223	         -5.52033077	         -2.67726920	
          1.04000000	         -1.72126821	         -4.98315756	         -2.72835626	
          1.05000000	         -1.81494649	         -4.35416092	         -2.79429542	
          1.06000000	         -1.89092079	         -3.70454790	         -2.87572313	
          1.07000000	         -1.94323409	         -3.10504143	         -2.97095675	
          1.08000000	         -1.96898756	         -2.61716388	         -3.07665860	
          1.09000000	         -1.96842856	         -2.28257664	         -3.18818983	
          1.10000000	         -1.94514060	         -2.11555597	         -3.30089027	
          1.11000000	         -1.90551073	         -2.10025273	         -3.41049184	
          1.12000000	         -1.85780704	         -2.19446004	         -3.51422881	
          1.13000000	         -1.81007058	         -2.34183983	         -3.61061176	
          1.14000000	         -1.76909157	         -2.48456138	         -3.69908357	
          1.15000000	         -1.73810693	         -2.57787935	         -3.77975289	
          1.16000000	         -1.71549465	         -2.59768794	         -3.85224150	
          1.17000000	         -1.69702897	         -2.54462266	         -3.91547729	
          1.18000000	         -1.67875237	         -2.44264708	         -3.96780066	
          1.19000000	         -1.65755639	         -2.32852822	         -4.00697122	
          1.20000000	         -1.63174927	         -2.23928084	         -4.03046000	
          1.21000000	         -1.60183067	         -2.19964180	         -4.03601963	
          1.22000000	         -1.57045965	         -2.21310112	         -4.02233532	
          1.23000000	         -1.54156557	         -2.26029338	         -3.98946456	
          1.24000000	         -1.51883187	         -2.30658558	         -3.93883645	
          1.25000000	         -1.50415292	         -2.31658277	         -3.87276732	
          1.26000000	         -1.49683862	         -2.26832220	         -3.79373107	
          1.27000000	         -1.49401907	         -2.15913596	         -3.70377549	
          1.28000000	         -1.49197393	         -2.00069153	         -3.60434805	
          1.29000000	         -1.48758970	         -1.80759735	         -3.49651778	
          1.30000000	         -1.47917639	         -1.58726012	         -3.38134776	
          1.31000000	         -1.46635995	         -1.33699787	         -3.26010731	
          1.32000000	         -1.44938227	         -1.04879472	         -3.13417527	
          1.33000000	         -1.42839442	         -0.71752000	         -3.00471380	
          1.34000000	         -1.40311545	         -0.34816125	         -2.87228939	
          1.35000000	         -1.37292325	          0.04081870	         -2.73662117	
          1.36000000	         -1.33725863	          0.41927674	         -2.59660162	
          1.37000000	         -1.29614368	          0.75185000	         -2.45063990	
          1.38000000	         -1.25064652	          1.00746570	         -2.29726161	
          1.39000000	         -1.20315809	          1.16998945	         -2.13581655	
          1.40000000	         -1.15733895	          1.24619577	         -1.96707089	
          1.41000000	         -1.11824021	          1.26768108	         -1.79298356	
          1.42000000	         -1.08288074	          1.28077353	         -1.61765853	
          1.43000000	         -1.06254764	          1.31272871	         -1.44079448	
          1.44000000	         -1.05331511	          1.38644095	         -1.26693991	
          1.45000000	         -1.05433278	          1.49190623	         -1.09712150	
          1.46000000	         -1.06321335	          1.60072595	         -0.93167602	
          1.47000000	         -1.07705434	          1.67946069	         -0.77156891	
          1.48000000	         -1.09123430	          1.70849456	         -0.61956258	
          1.49000000	         -1.11908707	          1.67577154	         -0.48184795	
          1.50000000	         -1.14514239	          1.59398052	         -0.36015269	
          1.51000000	         -1.17062830	          1.46933132	         -0.25703380	
          1.52000000	         -1.19193180	          1.31487771	         -0.17371964	
          1.53000000	         -1.20704953	          1.14287280	         -0.10997687	
          1.54000000	         -1.21507384	          0.96264180	         -0.06436892	
          1.55000000	         -1.21598776	          0.78045258	         -0.03462730	
          1.56000000	         -1.21077916	          0.60400270	         -0.01817893	
          1.57000000	         -1.20126941	          0.44426051	         -0.01253098	
          1.58000000	         -1.18957727	          0.31293721	         -0.01541347	
          1.59000000	         -1.17752490	          0.21847917	         -0.02476540	
          1.60000000	         -1.16632106	          0.16415180	         -0.03871525	
          1.61000000	         -1.15646013	          0.14749020	         -0.05556463	
          1.62000000	         -1.14763106	          0.15892208	         -0.07370529	
          1.63000000	         -1.13875407	          0.18133077	         -0.09153669	
          1.64000000	         -1.12842782	          0.19427398	         -0.10755768	
          1.65000000	         -1.11574736	          0.18269722	         -0.12068307	
          1.66000000	         -1.10106856	          0.14534962	         -0.13063003	
          1.67000000	         -1.08618859	          0.09700762	         -0.13811528	
